<svg class="svg_icon " viewBox="0 0 544 206" xmlns="http://www.w3.org/2000/svg">
    <g id="Group" stroke-width="1" transform="translate(-54, -215)">
        <path d="M133.46,219.92 L108.34,268.02 L153.11,356.51 L184.46,419.03 C185.18,420.45 187.2,420.48 187.96,419.07 L213.19,372.18 L136.94,219.94 C136.22,218.51 134.2,218.5 133.46,219.91 L133.46,219.91 L133.46,219.92 Z" class="slash_fill" id="slash_fill" fill="#FFB600" fill-rule="nonzero"></path>
        <path d="M308.63,305.62 L308.63,305.28 C308.63,269.69 336.73,243.12 374.36,243.12 C394.8,243.12 411.31,249.93 424.26,261.17 L401.95,288.08 C394.11,281.44 385.43,277.69 375.55,277.69 C360.205,277.69 349.035226,289.372792 348.813365,305.305886 L348.81,306.13 C348.81,322.99 360.56,334.57 377.25,334.57 C384.06,334.57 387.81,333.55 390.87,331.85 L390.87,319.93 L370.43,319.93 L370.43,294.38 L428.16,294.38 L428.16,349.56 C415.22,360.12 397.17,367.44 375.54,367.44 C338.7813,367.44 309.206733,343.074714 308.618918,306.725157 L308.61,305.62 L308.63,305.62 Z M440.1,245.68 L479.95,245.68 L479.95,364.89 L440.1,364.89 L440.1,245.68 Z M484.04,347.01 L505.33,321.64 C518.27,331.52 533.09,335.6 547.05,335.6 C554.2,335.6 557.27,333.73 557.27,330.49 L557.27,330.15 C557.27,326.74 553.52,324.87 540.75,322.32 L539.14965,321.990225 C513.0794,316.55658 490.51,308.7058 490.51,284 L490.51,283.66 C490.51,261.01 508.22,243.47 541.09,243.47 C564.08,243.47 581.11,248.92 594.9,259.82 L575.49,286.73 C564.25,278.56 550.8,274.98 539.73,274.98 C533.77,274.98 531.04,277.02 531.04,279.92 L531.04,280.26 C531.04,283.5 534.28,285.54 546.88,287.92 C577.36,293.54 597.8,302.4 597.8,326.41 L597.8,326.75 C597.8,351.78 577.19,367.11 545.18,367.11 C521.268667,367.11 499.684738,360.450493 484.547787,347.4506 L484.04,347.01 Z M237.27,332.19 L237.27,319.25 L295.51,319.25 L295.51,290.47 L237.27,290.47 L237.27,278.38 L299.77,278.38 L299.77,245.68 L198.1,245.68 L198.1,301.35 L229.49,364.02 L229.93,364.89 L300.62,364.89 L300.62,332.19 L237.27,332.19 Z M95.94,291.77 L55.18,369.81 C54.61,370.89 55.4,372.19 56.62,372.19 L106.69,372.19 L121.89,343.08 L95.93,291.77 L95.94,291.77 Z" class="text_fill" id="text_fill" fill="#001689" fill-rule="nonzero"></path>
        <g id="Layer_2" fill="#000000" fill-rule="nonzero">
            <path d="M168.08,217.59 C163.81,215.22 159.1,218.99 155.34,220.87 C153.11,222.17 150.74,223.25 148.6,224.68 C148.45,224.83 148.1,224.68 147.9,224.64 C148,224.54 148.16,224.64 148.28,224.54 C148.02,224.33 147.5,224.44 148.23,224.24 C148.14,224.03 147.83,224.21 147.72,224.06 C147.72,224 147.75,223.99 147.8,223.98 C147.88,223.96 147.97,223.99 148.03,223.92 C147.8,223.67 147.5,223.83 147.22,223.75 C147.33,223.62 147.59,223.74 147.59,223.58 C147.53,223.53 147.45,223.63 147.39,223.57 C147.39,223.5 147.51,223.52 147.48,223.43 C147.3,223.32 147,223.36 146.96,223.04 C146.85,222.81 146.75,223.24 146.61,223.26 C146.61,223.09 146.76,222.95 146.63,222.79 C146.55,222.69 146.44,222.7 146.4,222.82 C146.36,223.19 145.72,223.59 146.4,223.58 C146.25,223.68 146.03,223.55 146,223.68 C146,223.74 146.04,223.77 146.1,223.78 C146.29,223.8 146.49,223.82 146.68,223.78 C146.72,223.77 146.77,223.73 146.81,223.8 C146.79,223.87 146.64,223.83 146.69,223.92 C146.73,223.99 146.78,224.02 146.7,224.1 C146.7,224.27 147.01,224.15 147.13,224.15 C146.6,224.71 147.72,224.2 147.26,224.62 C147.24,224.65 147.22,224.7 147.26,224.71 C147.37,224.75 147.38,224.92 147.53,224.92 C147.58,224.92 147.67,224.93 147.68,225.02 C147.56,225.13 147.4,225.12 147.25,225.18 C147.43,225.39 148.02,225.42 148.18,225.19 C148.3,225.01 148.42,224.82 148.69,224.85 C150.44,224.15 152.04,223.11 153.74,222.29 C156.05,221.26 158.18,219.7 160.45,218.71 C156.52,221.32 152.3,223.52 148.12,225.69 C149.64,225.56 151.03,224.53 152.38,223.91 C154,223.23 155.54,222.39 157.09,221.57 C160.02,220.03 163.21,218 166.61,219.34 C168.22,219.64 167.45,220.48 166.63,221.23 C165.96,221.81 165.48,222.54 165.01,223.27 C164.07,224.35 162.29,224.05 161.2,224.99 C160.46,225.51 160.86,226.51 160.5,227.22 C160.01,228.3 158.42,227.69 157.9,228.82 C156.57,227.43 154.52,227.5 152.81,226.91 C154.35,226.84 155.87,227.03 157.39,227.24 C157.7,227.29 157.84,227.61 158.06,227.79 C158.46,228.04 157.88,227.31 157.81,227.19 C158.49,227.06 159.34,227.13 159.83,226.59 C158.95,226.7 158.08,226.93 157.19,226.62 C157,226.59 154.84,225.72 155.5,225.7 C157.11,225.65 158.96,226.48 160.4,225.45 C158.64,226.1 156.91,225.42 155.13,225.41 C154.5,225.36 156.34,224.56 156.51,224.53 C157.12,224.38 157.77,224.17 158.38,224.11 C157.83,224.66 158.58,225.2 159.15,224.91 C159,224.8 158.79,224.81 158.63,224.72 C158.14,224.5 158.7,224.06 159.04,224.13 C159.66,224.08 160.22,224.32 160.81,224.41 C160.64,223.97 158.75,224 159.29,223.86 C160.07,223.67 160.86,223.26 161.68,223.32 C162.57,223.41 163.65,223.74 164.43,223.18 C163.7,223.23 162.57,223.36 162.12,222.92 C163.08,222.43 164,221.89 165.1,221.81 C164.64,221.7 164.33,221.42 164.03,221.04 C164.51,221 164.88,221.09 165.34,221.15 C166.28,221.35 166.43,220.09 165.77,219.65 C165.13,219.16 164.21,219.02 163.5,219.4 C163.14,219.6 163.13,219.96 163.11,220.32 C161.75,219.82 160.08,220.02 158.98,221 C158.48,221.34 158.26,222.07 157.62,222.13 C156.54,222.24 155.09,222.75 154.87,223.95 C155.4,223.05 156.45,222.49 157.49,222.47 C156.8,223.14 156.34,224.08 155.49,224.57 C154.91,224.83 154.44,225.32 153.82,225.48 C152.03,225.71 150.23,225.83 148.45,226.1 C147.27,226.18 146.2,226.7 145.11,227.1 C144.91,227.17 144.72,227.27 144.49,227.11 C144.14,226.88 144.27,227.61 143.86,227.53 C143.82,227.38 144,227.29 144.05,227.16 C144.05,226.84 143.7,227.44 143.5,227.35 C143.67,227.17 143.78,226.95 143.93,226.76 C144.09,226.53 144.46,226.5 144.53,226.21 C144.15,226.13 143.9,226.58 143.45,226.65 C143.62,226.26 144,226.11 144.23,225.78 C143.92,225.77 143.59,226.15 143.35,225.9 C143.37,225.69 143.77,225.78 143.84,225.64 C143.3,225.47 144.48,225.37 144.45,225.1 C144.33,224.9 143.93,225.43 143.9,225.15 C144.12,224.86 144.64,224.97 144.92,224.75 C144.97,224.72 145.02,224.67 144.98,224.61 C144.88,224.53 144.72,224.76 144.57,224.73 C144.25,224.76 144.64,224.47 144.46,224.44 C144.31,224.38 144.31,224.37 144.36,224.22 C144.38,224.02 144.73,224.09 144.67,223.89 C144.51,223.78 144.4,224.06 144.2,224.05 C144.32,223.83 144.9,223.3 144.25,223.48 C144.19,223.52 144.13,223.63 144.07,223.54 C144.03,223.39 144.38,223.08 144.53,223.26 C144.73,223.42 145.02,223.28 145.25,223.35 C145.54,223.43 145.8,223.35 146.07,223.27 C146.26,223.25 146.44,222.69 146.25,222.63 C146.03,222.54 146.04,222.66 145.91,222.79 C145.56,222.94 145.82,222.55 145.78,222.38 C145.63,222.45 145.65,222.71 145.47,222.66 C145.34,222.6 145.55,222.45 145.46,222.37 C145.34,222.31 145.3,222.57 145.22,222.53 C145.11,222.46 145.07,222.6 145,222.59 C144.94,222.55 144.98,222.45 144.88,222.43 C144.8,222.7 144.49,222.51 144.3,222.7 C144.3,222.64 144.3,222.61 144.3,222.59 C144.35,222.45 144.13,222.39 144.1,222.53 C144.06,222.57 144.06,222.69 143.99,222.68 C143.88,222.35 143.91,222.61 143.75,222.72 C143.72,222.58 143.84,222.44 143.68,222.29 C143.66,222.57 143.47,222.75 143.42,223.01 C141.55,220.38 140.62,222.47 140.5,221.02 C139.4,216.98 134.02,219.1 132.44,215.57 C132.24,215.33 131.84,215.46 131.92,215.81 C131.99,216.2 132.46,216.26 132.68,216.55 C133.93,217.95 135.76,218.23 137.5,218.57 C138.86,218.93 140.04,220.05 140.2,221.49 C140.2,221.57 140.22,221.66 140.1,221.68 C139.66,221.77 139.28,222 138.92,222.25 C138.81,222.33 138.73,222.31 138.64,222.23 C137.02,220.79 134.9,219.89 132.74,219.7 C134.43,220.33 136.28,220.68 137.75,221.82 C137.92,222 138.59,222.36 138.33,222.62 C138.05,223.03 137.59,223.4 137.8,223.93 C138.17,225.01 136.96,225.74 137.04,226.82 C137.02,227.27 137.11,227.7 137.31,228.1 C137.31,228.23 137.58,228.25 137.44,228.46 C137.37,228.57 137.41,228.74 137.37,228.88 C137.33,229.25 136.62,228.94 136.82,229.23 C136.77,229.4 136.46,229.47 136.32,229.6 C136.27,229.63 136.21,229.66 136.24,229.74 C136.35,229.87 136.54,229.71 136.69,229.69 C136.71,229.82 136.6,229.94 136.66,230.07 C136.85,230.07 136.97,229.37 137.16,229.64 C137.23,229.77 137.34,229.66 137.38,229.57 C137.41,229.34 137.58,229.28 137.77,229.24 C138.38,229.13 138.78,228.56 139.36,228.41 C139.32,228.57 139.17,228.61 139.09,228.75 C139.33,228.65 139.55,228.57 139.79,228.47 C139.75,228.66 139.59,228.76 139.55,228.94 C139.76,228.8 139.95,228.64 140.19,228.52 C140.17,228.68 140.06,228.82 140.05,229.01 C140.21,228.86 140.24,228.66 140.38,228.5 C140.36,228.65 140.34,228.78 140.32,228.91 C140.49,228.58 140.83,228.35 140.87,227.95 C140.88,227.84 140.98,227.74 141.07,227.65 C141.11,228.19 140.52,228.56 140.51,229.12 C140.7,228.79 140.98,228.59 141.1,228.21 C141.27,228.63 140.93,228.87 140.91,229.27 C141.24,229.05 141.18,228.62 141.43,228.3 C141.34,228.77 141.2,229.17 141.28,229.65 C141.51,229.42 141.58,229.13 141.76,228.87 C141.74,229.21 141.66,229.5 141.61,229.84 C141.9,229.72 141.97,229.44 142.16,229.22 C142.13,229.57 141.99,229.86 141.95,230.21 C142.15,230.08 142.2,229.88 142.38,229.75 C142.35,229.96 142.28,230.14 142.29,230.35 C142.44,230.31 142.48,230.14 142.61,230.09 C142.68,230.35 142.6,230.53 142.37,230.62 C141.66,230.42 140.42,230.42 139.97,229.83 C139.83,230.06 139.84,230.31 139.5,230.34 C138.82,230.54 137.89,230.52 137.5,231.22 C137.25,231.66 137.07,232.15 136.77,232.55 C136.71,232.65 136.56,232.83 136.63,232.94 C136.94,232.97 136.08,234.55 135.98,234.78 C135.79,235.2 135.23,234.97 134.99,235.39 C135.44,235.5 135.53,235.24 135.37,235.84 C135.59,235.8 135.78,235.35 135.95,235.49 C135.98,235.54 135.98,235.64 136.07,235.63 C136.14,235.63 136.16,235.55 136.17,235.5 C136.29,235.19 136.72,235.29 136.98,235.19 C137.65,235.17 137.96,234.35 138.18,234.56 C138.36,234.69 138.53,234.58 138.65,234.45 C139.71,234.05 141.09,234.07 141.84,233.06 C141.94,232.85 142.13,232.96 142,233.16 C141.96,233.24 141.83,233.53 142.03,233.41 C142.17,233.25 142.56,232.42 142.41,233.08 C142.21,233.81 141.78,234.44 141.41,235.1 C141.35,235.2 141.3,235.3 141.39,235.41 C141.59,235.71 140.94,235.51 140.87,236.1 C140.63,236.94 140.66,237.8 140.85,238.64 C141.12,238.99 140.73,239.14 140.56,239.39 C140.54,239.53 140.81,239.44 140.9,239.46 C141.29,239.42 141.16,240.17 141.59,239.89 C141.85,239.8 141.73,240.4 141.8,240.58 C141.98,240.49 141.95,240.31 142.01,240.16 C142.25,240.31 142.33,240.53 142.4,240.77 C142.75,240.64 142.61,240.25 142.44,240.03 C142.25,239.75 141.18,238.94 141.4,238.59 C141.92,237.77 142.53,236.76 142.23,235.76 C142.1,235.52 142.78,235.36 142.88,234.88 C143.57,233.63 142.73,232.41 143.24,231.65 C143.31,231.57 143.55,231.07 143.57,231.39 C143.47,231.67 143.18,232.43 143.62,231.67 C143.65,231.61 143.67,231.49 143.76,231.53 C143.92,231.67 143.57,231.99 143.64,232.23 C143.83,232.12 143.83,231.88 144.01,231.76 C143.96,232.14 143.84,232.42 144.17,231.9 C144.34,231.99 144,232.25 144.19,232.34 C144.3,232.38 144.29,232.26 144.32,232.2 C144.41,231.7 144.63,232.41 144.6,232.63 C144.66,232.44 144.65,232.27 144.77,232.12 C144.87,232.28 144.73,232.47 144.85,232.65 C144.97,232.48 144.9,232.29 144.98,232.1 C145.09,232.29 145.02,232.49 145.11,232.66 C145.46,231.86 145.39,232.76 145.25,233.1 C145.02,233.68 144.99,234.29 145.09,234.9 C145.09,235.14 145.3,235.36 145.22,235.58 C144.73,236.47 144.51,237.51 144.31,238.5 C144.16,238.94 144.68,239.22 144.45,239.34 C143.68,240.07 144.36,241.99 144.41,242.97 C144.44,243.24 144.02,243.19 144.08,243.58 C144.09,243.8 143.82,243.78 143.68,243.84 C143.59,243.86 143.46,243.84 143.55,244.02 C143.6,244.23 142.22,244.46 143.52,244.48 C143.45,244.63 143.13,245.08 143.44,245.01 C143.81,244.8 143.71,244.04 143.94,244.58 C144.1,244.35 144.23,244.1 144.34,243.89 C144.51,243.77 144.64,244.25 144.92,243.79 C145.24,243.4 144.77,243.16 144.92,242.85 C145.14,242.61 145.2,242.26 145.37,242.01 C145.79,241.61 145.53,240.86 145.62,240.33 C145.62,240.04 145.51,239.77 145.36,239.52 C145,239.14 145.76,239.08 145.69,238.2 C145.78,237.99 145.49,236.22 145.8,236.79 C146.32,237.68 146.78,238.63 147.57,239.32 C148.22,240.23 148.84,241.13 149.83,241.72 C154.54,244.96 156.74,243.14 156.59,237.73 C156.64,235.14 155.35,232.94 154.05,230.8 C153.28,229.46 151.8,228.75 150.39,228.27 C149.96,228.13 150.19,228.5 150.01,228.48 C149.9,228.47 149.86,228.51 149.87,228.62 C149.87,228.67 149.78,228.66 149.77,228.75 C150.34,229.18 151,229.26 151.69,229.35 C150.98,229.41 150.27,229.38 149.57,229.38 C149.46,229.67 149.87,229.84 149.65,230.07 C149.55,230.38 149.79,230.73 149.32,230.39 C149.43,230.83 149.4,231.29 148.99,230.69 C148.97,230.84 149.02,230.95 149.05,231.06 C149.08,231.19 149.05,231.29 148.93,231.35 C148.82,231.29 148.84,231.14 148.72,231.05 C148.65,231.28 148.76,231.49 148.74,231.72 C148.58,231.64 148.57,231.48 148.48,231.36 C148.39,231.55 148.52,231.78 148.32,231.91 C148.24,231.84 148.32,231.73 148.24,231.65 C148.02,232.24 147.99,231.87 147.96,231.47 C147.88,231.68 147.92,231.87 147.87,232.08 C147.61,232.37 147.68,231.83 147.68,231.64 C147.55,231.9 147.56,232.16 147.39,232.36 C147.27,232.19 147.38,231.98 147.26,231.79 C147.18,232.05 147.2,232.31 147.01,232.54 C146.95,232.33 147.01,232.12 146.89,231.91 C146.85,232.18 146.87,232.44 146.68,232.69 C146.64,232.47 146.68,232.28 146.59,232.09 C146.48,232.42 146.43,233.18 146.23,232.42 C146.12,232.55 146.17,232.77 145.98,232.88 C145.89,232.64 145.96,232.39 145.92,232.11 C145.79,232.36 145.92,232.64 145.71,232.83 C145.65,232.73 145.7,232.64 145.66,232.55 C145.55,232.6 145.61,232.75 145.48,232.81 C145.51,232.61 145.43,232.32 145.62,232.2 C146.67,231.77 147.61,231.13 148.33,230.25 C148.49,230.08 148.6,230.06 148.3,230 C148.59,229.91 149.07,229.55 148.43,229.65 C148.61,229.5 149.36,229.35 148.67,229.3 C148.75,229.21 148.89,229.24 149,229.17 C149.3,228.98 148.93,229.01 148.77,228.99 C148.99,228.8 149.56,228.74 148.85,228.67 C148.98,228.55 149.15,228.53 149.32,228.41 C149.18,228.41 149.07,228.39 148.95,228.39 C149.01,228.24 149.18,228.26 149.27,228.17 C149.23,228.05 149.1,228.15 149.04,228.07 C149.18,227.91 149.46,227.97 149.11,227.83 C149.17,227.68 149.5,227.69 149.13,227.64 C149.3,227.41 149.67,227.38 149.94,227.57 C152.35,228.4 154.77,229.48 157.31,229.87 C158.95,230.17 158.75,228.72 160.15,228.59 C160.44,228.52 160.71,228.39 160.95,228.2 C161.94,227.58 161.27,226.27 162.02,225.63 C162.69,225.18 163.54,225.07 164.3,224.84 C164.88,224.8 165.32,224.45 165.57,223.93 C166.08,223.14 166.43,222.23 167.25,221.69 C168.89,220.81 169.48,218.75 168.06,217.59 L168.06,217.59 L168.08,217.59 Z M166.37,218.95 C164.97,218.46 163.5,218.41 162.05,218.71 C163.59,217.96 166.9,217.03 167.55,219.31 C167.13,219.18 166.75,219.06 166.37,218.95 L166.37,218.95 L166.37,218.95 Z M163.76,219.63 C164.47,219.27 165.99,219.61 165.8,220.63 C165.73,221.35 164.46,220.65 163.93,220.76 C163.42,220.74 163.26,219.81 163.76,219.63 L163.76,219.63 Z M163.12,220.72 C163.55,220.98 163.77,221.46 164.31,221.69 C163.44,222 162.73,222.3 161.95,222.72 C161.78,222.81 161.75,222.8 161.63,222.66 C160.88,221.75 162.14,220.51 163.12,220.72 Z M162.3,220.51 C161.44,220.93 160.9,221.53 161.08,222.6 C160.25,222.18 159.42,221.97 158.48,222.04 C159.51,220.64 161.1,220.2 162.3,220.51 Z M156.49,223.88 C157.84,222.17 159.33,221.98 161.16,223.11 C160.39,223.18 159.71,223.46 159.01,223.7 C158.07,223.96 157.09,224.07 156.15,224.25 C156.27,224.12 156.38,224 156.49,223.87 L156.49,223.87 L156.49,223.88 Z M138.89,230.7 C138.43,230.97 137.99,231.28 137.54,231.56 C137.8,230.97 138.32,230.79 138.89,230.7 Z M140.5,232.63 C140.05,232.82 139.55,232.85 139.2,233.25 C139.05,232.59 140.29,232.55 140.77,232.46 C140.68,232.57 140.59,232.59 140.5,232.62 L140.5,232.62 L140.5,232.63 Z M142.47,231.4 C141.99,232.49 140.76,232.12 139.83,232.41 C138.97,232.55 139.14,233.3 138.52,233.43 C137.55,233.88 138.63,234.44 136.46,234.76 C136.89,234.07 136.87,233.17 137.58,232.73 C138.27,232.36 138.88,231.87 139.43,231.32 C139.59,231.23 139.65,230.95 139.92,231.06 C140.28,231.08 140.49,231.42 140.84,231.44 C141.15,231.49 141.51,231.41 141.79,231.54 C141.99,231.71 142.77,230.86 142.47,231.4 L142.47,231.4 L142.47,231.4 Z M141.77,222.04 C141.85,222.1 141.74,222.13 141.74,222.18 C140.56,223 141.02,221.62 141.77,222.04 Z M140.67,221.99 C140.76,221.82 141.19,221.74 141.01,222.03 C140.79,222.2 140.59,222.65 140.27,222.45 C140.4,222.29 140.53,222.14 140.67,221.99 L140.67,221.99 L140.67,221.99 Z M140.45,223.07 C140.71,223.03 140.93,223.1 141.09,223.31 C140.28,222.94 139.41,223.55 138.97,224.2 C138.91,224.27 138.84,224.47 138.72,224.4 C138.84,223.75 139.8,223.2 140.45,223.07 L140.45,223.07 L140.45,223.07 Z M140.91,224.3 C140.56,224.56 140.08,224.38 139.81,224.07 C139.67,223.57 140.62,223.33 140.94,223.66 C141.2,223.88 141.19,224.1 140.92,224.3 L140.92,224.3 L140.91,224.3 Z M138.13,223.25 C138.55,222.72 139.07,222.19 139.73,221.99 C139.23,222.89 138.36,223.19 138.28,224.37 C138.19,224.35 138.2,224.28 138.18,224.23 C138.11,223.88 137.84,223.55 138.13,223.24 L138.13,223.24 L138.13,223.25 Z M137.36,227.39 C137.2,226.91 137.28,226.44 137.5,225.99 C137.53,226.46 137.35,226.91 137.36,227.39 Z M141.54,224.8 C141.6,226.52 138.2,229.79 137.65,226.84 C137.71,226.16 137.94,225.33 138.66,225.08 C138.4,225.79 137.41,227.75 138.62,227.92 C139.05,227.93 139.42,227.69 139.69,227.38 C140.55,226.45 140.95,225.33 141.23,224.13 C141.36,225.25 140.7,226.34 140.03,227.2 C141.02,226.46 141.35,225.26 141.53,224.1 C141.56,224.34 141.57,224.57 141.53,224.81 L141.53,224.81 L141.54,224.8 Z M141.76,222.51 C141.37,222.44 141.7,222.37 141.76,222.18 C141.89,222.16 142.02,222.14 142.14,222.23 C142.33,222.38 141.93,222.64 141.77,222.51 L141.77,222.51 L141.76,222.51 Z M142.04,222.79 C142.05,222.54 142.45,222.39 142.47,222.77 C142.49,222.99 142.04,223.01 142.04,222.79 Z M143.17,223.81 C142.93,224.28 143.2,224.62 142.7,224.96 C142.98,225.22 143.14,225.14 142.73,225.45 C142.66,225.51 142.59,225.58 142.62,225.66 C142.68,225.83 142.58,225.89 142.46,225.95 C142.1,226.24 142.27,225.19 142.27,224.98 C142.12,224.12 142.32,224.24 142.71,223.5 C142.91,223.22 142.46,223.5 142.58,222.87 C142.77,222.74 142.88,223.02 142.99,222.68 C143.2,222.99 143.37,223.47 143.17,223.81 L143.17,223.81 L143.17,223.81 Z M143.53,228.22 C143.55,228.02 143.56,227.83 143.57,227.63 C143.73,227.83 143.71,228 143.53,228.22 Z M145.24,239.93 C145.37,240.27 145.32,240.61 145.24,240.97 C145.16,240.74 145.15,240.2 145.24,239.93 Z M148.26,238.98 C147.39,238.78 146.85,237.79 146.65,236.99 C146.99,237.36 147.16,237.83 147.5,238.21 C149.29,240.13 152.35,236.84 153.97,235.88 C154.16,235.78 155.21,234.85 155.14,235.37 C154.18,236.75 149.94,239.16 148.26,238.98 L148.26,238.98 L148.26,238.98 Z M155.41,237.31 C155.61,237.83 155.06,238.52 154.62,238.76 C154.66,238.64 154.78,238.6 154.82,238.44 C154.29,238.96 153.71,239.3 153.08,239.58 C153.16,239.32 153.44,239.26 153.58,239.04 C153.36,239.16 153.15,239.28 152.88,239.14 C153.02,239.01 153.82,238.83 153.23,238.85 C153.23,238.8 153.29,238.79 153.33,238.74 C153.17,238.73 153.04,238.69 152.95,238.62 C153.18,238.49 153.48,238.59 153.69,238.38 C153.56,238.36 153.43,238.4 153.3,238.33 C153.44,238.09 153.71,238.21 153.89,238.09 C153.88,238.03 153.75,238.03 153.77,237.92 C153.87,237.89 153.99,237.91 154.09,237.84 C154.04,237.77 153.92,237.87 153.89,237.73 C154.07,237.65 154.34,237.75 154.36,237.45 C154.36,237.33 154.5,237.28 154.65,237.3 C154.65,237.48 154.51,237.6 154.4,237.79 C154.71,237.57 154.85,237.27 155.11,237.05 C155.12,237.23 155.06,237.35 155.02,237.53 C155.2,237.34 155.24,237.13 155.36,236.9 C155.38,237.16 155.28,237.33 155.23,237.54 C155.33,237.48 155.34,237.38 155.41,237.32 L155.41,237.32 L155.41,237.31 Z M155.62,240.84 C155.18,242.46 153.55,243.14 152.07,242.43 C153.13,242.63 154.66,242.46 154.87,241.19 C154.82,241.14 154.76,241.23 154.7,241.16 C155.03,241.03 155.36,240.92 155.63,240.66 C155.68,240.73 155.65,240.79 155.63,240.83 L155.63,240.83 L155.62,240.84 Z M155.99,238.68 C154.79,239.94 153.22,240.71 151.59,241.29 C150.43,241.85 149.21,240.95 148.69,239.92 C148.74,239.45 149.07,240.08 149.16,240.22 C150.87,242.85 153.79,239.83 155.5,238.67 C154.77,239.51 153.83,240.04 152.9,240.64 C153.74,240.44 155.49,239.09 156.18,238.17 C156.23,238.42 156.11,238.57 155.99,238.7 L155.99,238.7 L155.99,238.68 Z M155.37,234.64 C155.77,234.2 155.72,235.19 155.26,235.05 C154.45,235.07 153.86,235.79 153.22,236.21 C152.56,236.69 151.89,237.14 151.19,237.57 C151.71,237.03 152.39,236.7 153,236.26 C153.72,235.62 154.59,235.2 155.37,234.65 L155.37,234.65 L155.37,234.64 Z M153.85,233.2 C154.34,233.4 154.88,234.32 154.41,234.79 C154.32,234.87 154.16,235.15 154.04,235.05 C154,235.09 154.04,235.23 153.94,235.26 C153.87,235.21 153.94,235.11 153.87,235.07 C153.83,235.2 153.82,235.34 153.73,235.45 C153.68,235.51 153.63,235.3 153.57,235.45 C153.55,235.51 153.56,235.59 153.48,235.63 C153.42,235.57 153.47,235.48 153.43,235.42 C153.33,235.49 153.43,235.72 153.21,235.66 C153.18,235.66 153.12,235.61 153.09,235.69 C153.02,235.87 152.79,235.91 152.72,236.08 C152.63,236.06 152.7,235.98 152.64,235.95 C152.52,236.09 152.36,236.46 152.19,236.2 C152.18,236.41 151.92,236.3 151.88,236.49 C151.83,235.91 151.89,236.74 151.09,236.69 C150.74,236.63 151.02,236.05 151.04,235.79 C151.18,235.78 151.27,235.89 151.41,235.86 C151.41,235.65 151.21,235.53 151.18,235.34 C151.31,235.27 151.68,235.5 151.61,235.22 C151.33,234.71 151.6,235.05 151.88,234.99 C151.89,234.84 151.96,234.78 152.1,234.79 C151.92,234.67 151.86,234.47 152.14,234.49 C152.27,234.52 152.38,234.61 152.51,234.63 C152.57,234.52 152.33,234.47 152.41,234.38 C152.47,234.2 152.67,234.24 152.71,234.06 C152.81,234.09 152.84,234.21 152.95,234.25 C152.77,233.76 152.91,233.99 153.17,234.18 C153.16,234.02 152.93,233.94 153.01,233.78 C153.1,233.63 153.53,234.16 153.41,233.8 C153.25,233.57 153.59,233.8 153.33,233.38 C153.6,233.4 153.73,233.62 153.94,233.71 C153.96,233.52 153.81,233.37 153.85,233.19 L153.85,233.19 L153.85,233.2 Z M153.52,230.82 C154.02,231.26 153.56,231.53 153.08,231.66 C153.31,231.4 153.44,231.14 153.52,230.82 Z M151.56,229.75 C151.85,229.63 151.86,229.63 151.74,229.35 C152.06,229.58 152.4,229.69 152.6,230.09 C152.22,229.99 151.87,229.9 151.53,229.8 C151.55,229.77 151.55,229.75 151.56,229.75 L151.56,229.75 L151.56,229.75 Z M149.6,233.13 C149,233.32 149.36,232.91 149.65,232.74 C148.92,232.65 149.44,232.5 149.69,232.22 C148.84,232.13 149.52,231.96 149.9,231.83 C149.74,231.77 149.6,231.82 149.42,231.74 C149.76,231.65 150,231.46 150.29,231.29 C150.12,231.22 149.98,231.29 149.83,231.22 C150.08,231.15 150.34,231.16 150.55,230.97 C150.33,230.82 150.09,230.92 149.84,230.85 C150,230.83 150.12,230.82 150.23,230.79 C150.36,230.76 150.23,230.7 150.25,230.66 L151.02,230.66 C150.92,230.49 150.78,230.4 150.59,230.35 C151.33,229.89 152.05,230.65 152.45,231.21 C152.93,231.77 149.82,233.49 149.27,233.51 C149.47,233.27 149.73,233.2 149.94,233.02 C149.83,233.06 149.72,233.09 149.61,233.13 L149.61,233.13 L149.6,233.13 Z M152.46,231.93 C151.92,232.66 151.2,233.18 150.41,233.6 C151.08,233.03 151.79,232.5 152.46,231.93 Z M145.57,233.84 C145.89,234.57 146.12,236.24 147.45,235.81 C148.79,235.37 149.97,234.47 151.01,233.55 C150.57,233.83 150.18,234.08 149.78,234.33 C150.71,233.49 151.98,232.99 152.74,231.91 C152.96,231.66 153.38,232.12 153.73,231.79 C152.4,233.61 150.16,234.7 148.18,235.73 C146.54,236.7 145.42,235.55 145.57,233.84 L145.57,233.84 L145.57,233.84 Z M147.75,226.52 C149.93,226.19 152.14,226.14 154.31,225.81 C154.97,225.99 155.61,226.38 156.25,226.63 C153.04,226.77 149.72,225.97 146.55,226.84 C146.95,226.66 147.34,226.57 147.75,226.52 L147.75,226.52 Z M144.05,230.41 C144.07,230.26 143.98,230.03 144.08,229.93 C144.26,229.93 144.23,230.79 144.05,230.41 L144.05,230.41 Z M144.6,230.7 C144.22,230.7 144.39,230.33 144.35,230.1 C144.35,230 144.4,229.97 144.49,229.97 C144.72,230.04 144.54,230.48 144.6,230.7 L144.6,230.7 Z M144.99,230.87 C144.59,230.87 144.82,230.43 144.77,230.18 C144.98,229.88 145.03,230.75 144.99,230.87 Z M145.35,230.84 C145.35,230.94 145.26,230.94 145.18,231 C145.15,230.75 145.15,230.51 145.16,230.24 C145.37,230.43 145.36,230.63 145.35,230.83 L145.35,230.83 L145.35,230.84 Z M145.43,229.91 C145.7,229.67 145.54,230.29 145.54,230.42 C145.42,230.28 145.33,230.07 145.43,229.91 Z M145.69,231.42 C145.47,231.36 145.56,231.01 145.47,230.83 C145.44,230.69 145.47,230.6 145.63,230.58 C145.88,230.47 145.8,231.27 145.69,231.42 L145.69,231.42 Z M146.04,231.25 C145.93,231 145.92,230.72 145.9,230.45 C146.05,230.7 146.15,230.96 146.04,231.25 Z M146.19,230.25 C146.35,230.5 146.38,230.79 146.4,231.08 C146.27,230.82 146.2,230.54 146.19,230.25 Z M147.76,227.42 C147.81,227.55 147.95,227.5 148.02,227.61 C147.84,227.67 147.72,227.55 147.54,227.59 C147.79,227.78 148.11,228.22 147.9,228.51 C147.69,228.51 147.46,227.98 147.19,227.88 C147.6,228.41 147.88,229.54 147.03,228.43 C147.08,228.76 147.35,228.97 147.29,229.31 C147.01,229.12 146.87,228.83 146.64,228.55 C146.64,228.87 146.94,229.1 146.82,229.37 C146.46,229.33 146.46,228.66 146.3,228.38 C146.24,228.74 146.38,229.09 146.3,229.45 C146.14,229.15 146.02,228.85 145.96,228.52 C145.87,228.77 145.88,229.03 145.85,229.29 C145.45,229.09 145.74,228.55 145.64,228.19 C145.47,228.44 145.52,228.76 145.39,229.03 C145.02,229.47 145.28,228.16 145.22,228 C145.06,228.29 145.12,228.65 144.91,228.88 C144.7,229 144.69,228.62 144.73,228.49 C144.77,228.29 144.91,228.08 144.84,227.87 C144.64,228.13 144.65,228.5 144.35,228.72 C144.39,228.42 144.12,228.31 144.31,228.08 C144.26,228.04 144.15,228.21 144.17,228.03 C144.01,228.18 144.07,228.44 143.86,228.53 C143.8,228.48 143.82,228.42 143.84,228.36 C143.95,228.09 143.97,227.69 144.33,227.66 C144.5,227.49 144.68,227.35 144.94,227.33 C144.94,227.45 144.8,227.48 144.81,227.61 C145.94,227.52 146.98,226.89 148.15,227.08 C147.94,227.2 147.72,227.14 147.51,227.24 C147.79,227.31 148.09,227.24 148.34,227.47 C148.11,227.51 147.93,227.45 147.74,227.42 L147.74,227.42 L147.76,227.42 Z M157.4,229.06 C155.04,229.01 152.99,227.55 150.69,227.15 C149.74,226.97 148.77,227.05 147.81,226.95 C148.88,226.75 149.95,226.67 151.03,226.93 C151.55,227.06 159,228.52 157.39,229.06 L157.39,229.06 L157.4,229.06 Z" id="Shape"></path>
            <path d="M132.43,219.7 C131.66,219.49 130.91,219.23 130.14,219.07 C129.69,218.93 129.94,218.36 130.34,218.46 C130.69,218.61 130.83,219.03 131.25,219.12 C131.61,219.32 132.2,219.43 132.43,219.71 L132.43,219.7 Z" id="Path"></path>
            <path d="M153.87,224.03 C153.12,224.34 152.26,224.54 152.06,225.45 C151.37,226.37 151.82,223.8 153.87,224.03 L153.87,224.03 Z" id="Path"></path>
            <path d="M148.17,225.52 C147.86,225.66 147.56,225.96 147.21,225.78 C147.07,225.85 147.21,226.01 146.92,226.04 C146.44,226.01 147.32,225.46 147.47,225.67 C147.57,225.75 147.7,225.66 147.59,225.56 C147.5,225.38 148.15,225.43 148.16,225.52 L148.16,225.52 L148.17,225.52 Z" id="Path"></path>
            <path d="M145.09,226.97 C145,226.66 145.01,226.64 145.25,226.57 C146.07,226.35 145.37,226.78 145.09,226.97 Z" id="Path"></path>
            <path d="M145.11,224.65 C145.41,224.44 145.71,224.49 146.03,224.4 C145.88,224.59 145.57,224.67 145.11,224.65 Z" id="Path"></path>
            <path d="M144.61,226.49 C144.55,226.72 144.33,227.01 144.12,226.9 C144.16,226.7 144.39,226.57 144.61,226.49 Z" id="Path"></path>
            <path d="M145.37,224.84 C145.57,224.74 145.78,224.75 146,224.75 C145.8,224.82 145.6,224.91 145.37,224.84 Z" id="Path"></path>
            <path d="M151.15,236.04 C151.37,236.15 151.21,236.57 151.07,236.37 C151.05,236.31 151.08,236.2 151.15,236.04 Z" id="Path"></path>
        </g>
    </g>
</svg>