<?xml version="1.0" encoding="UTF-8" standalone="no"?>

<svg width="119" height="27" viewBox="0 0 119 27" fill="none" xmlns="http://www.w3.org/2000/svg">
<path d="M10.1917 6.99057L21.5445 26.2003C21.6724 26.4149 21.8556 26.5931 22.0758 26.7172C22.2961 26.8413 22.5457 26.907 22.8 26.9077H28.5641C28.8179 26.9075 29.0671 26.842 29.2867 26.7178C29.5063 26.5936 29.6885 26.4151 29.815 26.2003L32.6994 21.3276C32.8252 21.1121 32.8914 20.8683 32.8914 20.6202C32.8914 20.3721 32.8252 20.1283 32.6994 19.9128L21.3285 0.707415C21.2013 0.492246 21.0183 0.313584 20.7979 0.189404C20.5775 0.0652229 20.3276 -0.000104349 20.0731 3.52207e-06H14.3134C14.0589 -0.000551877 13.8087 0.0645881 13.5883 0.188814C13.3678 0.313039 13.1849 0.491945 13.058 0.707415L10.1782 5.58015C10.0521 5.79529 9.98695 6.0393 9.98932 6.28715C9.9917 6.535 10.0615 6.77777 10.1917 6.99057Z" fill="#5A50FF"></path>
<path d="M6.38948 13.5902L0.598326 17.6984C0.350768 17.874 0.166495 18.1216 0.0719196 18.4058C-0.0226552 18.6899 -0.0226688 18.996 0.0718647 19.2802L2.28573 25.928C2.37922 26.2128 2.56299 26.4612 2.81049 26.6373C3.05798 26.8134 3.3564 26.9082 3.66265 26.9079H10.8173C11.1241 26.9084 11.4232 26.8138 11.6715 26.6378C11.9197 26.4617 12.1043 26.2132 12.1987 25.928L14.408 19.2802C14.5026 18.996 14.5026 18.6899 14.408 18.4058C14.3134 18.1216 14.1291 17.874 13.8816 17.6984L8.0949 13.5902C7.84689 13.4147 7.54845 13.3203 7.24219 13.3203C6.93593 13.3203 6.63749 13.4147 6.38948 13.5902Z" fill="#5A50FF"></path>
<path d="M40.4165 14.0471C40.4165 9.5918 43.0084 6.66553 47.2831 6.66553C49.056 6.66553 50.5094 7.3202 51.3329 8.31321V6.894H55.4052V21.2046H51.3329V19.6932C50.6039 20.7477 49.083 21.4287 47.3506 21.4287C43.0084 21.4507 40.4165 18.5068 40.4165 14.0471ZM51.5849 14.0471C51.5849 11.6349 50.1585 10.0444 47.9851 10.0444C45.8117 10.0444 44.3853 11.6349 44.3853 14.0471C44.3853 16.4593 45.8072 18.0235 47.9851 18.0235C50.163 18.0235 51.5849 16.433 51.5849 14.0471Z" fill="currentColor"></path>
<path d="M57.7764 6.894H61.8261V8.45381C62.6991 7.34657 64.1525 6.66553 66.0424 6.66553C70.1462 6.66553 72.7605 9.5918 72.7605 14.0471C72.7605 18.5024 69.8897 21.4507 65.6734 21.4507C64.013 21.4507 62.5911 20.9102 61.8037 19.9436V27.0133H57.7539L57.7764 6.894ZM68.7692 14.0471C68.7692 11.6349 67.3158 10.0443 65.1919 10.0443C63.0681 10.0443 61.5922 11.6349 61.5922 14.0471C61.5922 16.4593 63.0186 18.0235 65.1919 18.0235C67.3653 18.0235 68.7558 16.4329 68.7558 14.0471H68.7692Z" fill="currentColor"></path>
<path d="M74.4253 0.672119H78.4751V8.87977C79.321 7.48693 80.9184 6.68287 82.9748 6.68287C86.2596 6.68287 88.4105 9.01158 88.4105 12.307V21.222H84.3607V13.1681C84.3607 11.437 83.1953 10.1847 81.5124 10.1847C79.7125 10.1847 78.4841 11.5029 78.4841 13.3659V21.2044H74.4343L74.4253 0.672119Z" fill="currentColor"></path>
<path d="M104.533 16.3495C103.953 19.4252 101.163 21.4331 97.5541 21.4331C92.6043 21.4331 90.0215 17.6281 90.0215 14.0207C90.0215 10.4134 92.2939 6.66553 97.2661 6.66553C102.441 6.66553 104.506 10.3871 104.506 13.6517C104.506 14.1921 104.475 14.6183 104.448 14.9303H93.9183C94.2107 16.947 95.5202 18.1949 97.5541 18.1949C99.183 18.1949 100.254 17.571 100.578 16.3495H104.533ZM93.9768 12.4302H100.466C100.454 12.035 100.361 11.6463 100.192 11.2867C100.024 10.9272 99.7835 10.6042 99.4854 10.3368C99.1872 10.0694 98.8372 9.86302 98.4561 9.72979C98.0749 9.59655 97.6703 9.53917 97.2661 9.56105C95.4302 9.56105 94.3277 10.4662 93.9768 12.4302Z" fill="currentColor"></path>
<path d="M114.698 21.2045L111.548 16.8107L108.399 21.2045H104.065L109.357 13.735L104.443 6.8938H108.867L111.539 10.6681L114.217 6.8938H118.667L113.749 13.7658L119.014 21.2045H114.698Z" fill="currentColor"></path>
</svg>