<?xml version="1.0" encoding="UTF-8"?><svg id="Layer_1" xmlns="http://www.w3.org/2000/svg" viewBox="0 0 1000 190.08"><defs><style>.cls-1{fill:#0076f8;}</style></defs><path class="cls-1" d="M305.63,144.52c-12.47,0-23.53-4.83-31.58-13.28v11.06h-25.54V0h26.75V48.58c7.84-7.64,18.5-12.07,30.37-12.07,27.15,0,49.28,23.33,49.28,54.1s-22.12,53.9-49.28,53.9Zm-3.82-83.47c-14.68,0-26.55,13.27-26.55,29.77s11.87,29.16,26.55,29.16,26.55-12.67,26.55-29.16-11.87-29.77-26.55-29.77Z"/><path class="cls-1" d="M428.76,62.46c-10.66-1.21-19.51,0-25.54,6.44-5.63,5.83-6.64,14.28-6.64,22.53v50.88h-26.55V38.72h25.34v10.26c8.45-10.46,20.92-14.28,33.39-12.27v25.74Z"/><path class="cls-1" d="M646.78,142.3h-26.55v-60.54c0-6.03-1.81-20.51-19.31-20.51-11.87,0-20.11,8.85-20.11,20.51v60.54h-26.55V38.72h25.34v10.06c6.64-7.84,15.69-12.67,26.75-12.67,24.34,0,40.43,18.3,40.43,45.66v60.54Z"/><path class="cls-1" d="M716.91,142.1c-30.37,3.22-46.46-15.08-46.46-43.44V62.26h-12.47v-23.53h12.47V12.38h26.55v26.35h18.7v23.53h-18.7v36.61c0,14.48,6.64,19.91,19.91,19.11v24.13Z"/><path class="cls-1" d="M823.21,142.3h-25.34v-9.45c-6.44,7.44-15.49,11.87-26.35,11.87-24.54,0-40.83-18.3-40.83-45.45V38.72h26.55v60.54c0,5.83,2.01,20.31,19.31,20.31,11.87,0,20.11-8.85,20.11-20.31V38.72h26.55v103.58Z"/><path class="cls-1" d="M1000,142.3h-26.55v-60.54c0-6.03-2.01-20.51-19.31-20.51-11.87,0-20.11,8.85-20.11,20.51v60.54h-26.75v-60.54c0-6.03-1.81-20.51-19.31-20.51-11.67,0-19.91,8.85-19.91,20.51v60.54h-26.75V38.72h25.54v10.06c6.44-7.84,15.49-12.67,26.75-12.67,12.87,0,23.73,5.43,30.97,14.68,7.44-9.05,18.3-14.68,31.58-14.68,27.76,0,43.85,18.5,43.85,45.66v60.54Z"/><polygon class="cls-1" points="515.98 38.72 490.1 110 465.9 38.72 437.75 38.72 477.75 144.01 461.02 190.08 487.78 190.08 544.34 38.72 515.98 38.72"/><rect class="cls-1" x="148.02" width="74.01" height="29.78"/><rect class="cls-1" y="56.26" width="222.03" height="29.78"/><rect class="cls-1" x="74.01" y="112.52" width="148.02" height="29.6"/></svg>