<svg width="165" height="43" viewBox="0 0 165 43" fill="none" xmlns="http://www.w3.org/2000/svg">
<g clip-path="url(#clip0_315_119)">
<path d="M80.315 25.3573L69.9392 1.05823H65.6375L55.2462 25.3573H60.2122L62.183 20.531H73.3813L75.349 25.3573H80.315ZM63.7659 16.6886L67.8008 6.80322L71.8356 16.6886H63.7659Z" fill="#0A1623"/>
<path d="M101.026 21.5149H90.2872V1.05823H85.6595V25.3573H101.026V21.5149Z" fill="#0A1623"/>
<path d="M112.041 1.05823H107.41V25.3573H112.041V1.05823Z" fill="#0A1623"/>
<path d="M142.054 20.7949L138.935 18.0016C137.383 20.3666 135.127 21.844 131.843 21.844C126.948 21.844 123.634 18.3957 123.634 13.1753C123.634 8.02001 126.883 4.57178 131.778 4.57178C134.667 4.57178 136.998 5.81326 138.376 7.5917L141.3 4.63695C138.901 2.04224 135.685 0.72937 131.709 0.72937C123.994 0.72937 118.838 5.69532 118.838 13.1443C118.838 20.6646 124.028 25.6895 131.744 25.6895C136.176 25.6864 139.723 23.9793 142.054 20.7949Z" fill="#0A1623"/>
<path d="M152.852 21.5149V14.9474H163.687V11.1391H152.852V4.90063H164.736V1.05823H148.221V25.3573H165V21.5149H152.852Z" fill="#0A1623"/>
<path d="M65.3551 37.7381H69.2316V37.0522H65.3551V34.1254H69.5047V33.4363H64.5264V41.5153H69.6041V40.8263H65.3551V37.7381Z" fill="#0A1623"/>
<path d="M146.871 33.4363H146.042V41.5153H146.871V33.4363Z" fill="#0A1623"/>
<path d="M55.2587 34.1254H57.8689V41.5153H58.7007V34.1254H61.2985V33.4363H55.2587V34.1254Z" fill="#0A1623"/>
<path d="M117.51 33.4363H116.681V41.5153H121.331V40.8263H117.51V33.4363Z" fill="#0A1623"/>
<path d="M162.467 37.0615L161.912 36.897C161.027 36.6456 160.264 36.3197 160.264 35.4228C160.264 34.5848 161.015 34.0168 162.151 34.0168C162.542 34.0055 162.932 34.0719 163.297 34.212C163.662 34.3521 163.996 34.5632 164.28 34.8331L164.674 34.2558C164.338 33.9417 163.943 33.6976 163.512 33.5377C163.081 33.3779 162.623 33.3054 162.163 33.3247C160.503 33.3247 159.401 34.2092 159.401 35.5407C159.401 36.807 160.36 37.3191 161.496 37.6357L162.042 37.8002C163.265 38.1602 164.137 38.5761 164.137 39.4917C164.137 40.4073 163.318 40.935 162.03 40.935C161.62 40.9497 161.211 40.8829 160.827 40.7385C160.442 40.5941 160.091 40.375 159.792 40.0939L159.454 40.6836C160.074 41.326 161.049 41.6147 162.086 41.6147C163.833 41.6147 165 40.7301 165 39.3986C165 37.9771 163.634 37.4123 162.467 37.0615Z" fill="#0A1623"/>
<path d="M139.155 37.2259V37.9243H141.719C141.632 39.7368 140.518 40.938 138.795 40.938C136.933 40.938 135.692 39.5506 135.692 37.4773C135.692 35.404 136.933 34.0167 138.78 34.0167C139.554 33.9791 140.317 34.219 140.931 34.6933L141.477 34.1563C140.7 33.5787 139.747 33.2861 138.78 33.3277C136.39 33.3277 134.816 34.9881 134.816 37.4773C134.816 39.9665 136.399 41.6239 138.78 41.6239C141.104 41.6239 142.591 40.01 142.591 37.4773V37.2259H139.155Z" fill="#0A1623"/>
<path d="M151.89 37.7381H155.766V37.0522H151.89V34.1254H156.04V33.4363H151.061V41.5153H156.136V40.8263H151.89V37.7381Z" fill="#0A1623"/>
<path d="M76.786 40.9381C74.8524 40.9381 73.5644 39.5383 73.5644 37.4557C73.5644 35.3731 74.8648 34.0168 76.8078 34.0168C77.2812 34.0142 77.7493 34.1163 78.1786 34.3159C78.6079 34.5155 78.9877 34.8077 79.2908 35.1713L79.8153 34.6375C79.4323 34.2116 78.9614 33.874 78.4352 33.6478C77.909 33.4217 77.34 33.3125 76.7674 33.3277C74.3217 33.3277 72.686 34.9758 72.686 37.4557C72.686 39.9356 74.3217 41.624 76.7674 41.624C77.3989 41.6423 78.0256 41.5094 78.5953 41.2362C79.1649 40.963 79.6609 40.5575 80.0419 40.0535L79.4739 39.529C79.1795 39.9699 78.7792 40.33 78.3096 40.5762C77.84 40.8224 77.3162 40.9468 76.786 40.9381Z" fill="#0A1623"/>
<path d="M108.996 33.3277C106.572 33.3277 104.946 34.9882 104.946 37.4774C104.946 39.9666 106.572 41.6239 108.996 41.6239C111.42 41.6239 113.031 39.9666 113.031 37.4774C113.031 34.9882 111.424 33.3277 108.996 33.3277ZM108.996 40.938C107.085 40.938 105.818 39.5507 105.818 37.4774C105.818 35.4041 107.078 34.0167 108.996 34.0167C110.915 34.0167 112.162 35.401 112.162 37.4774C112.162 39.5538 110.884 40.938 108.996 40.938Z" fill="#0A1623"/>
<path d="M127.659 33.3277C125.238 33.3277 123.609 34.9882 123.609 37.4774C123.609 39.9666 125.238 41.6239 127.659 41.6239C130.08 41.6239 131.694 39.9666 131.694 37.4774C131.694 34.9882 130.074 33.3277 127.659 33.3277ZM127.659 40.938C125.75 40.938 124.484 39.5507 124.484 37.4774C124.484 35.4041 125.75 34.0167 127.659 34.0167C129.568 34.0167 130.825 35.401 130.825 37.4774C130.825 39.5538 129.549 40.938 127.659 40.938Z" fill="#0A1623"/>
<path d="M100.471 40.0752L94.859 33.4363H94.3252V41.5153H95.1539L95.1446 34.8796L100.756 41.5153H101.29V33.4363H100.461L100.471 40.0752Z" fill="#0A1623"/>
<path d="M89.3065 37.0615H84.3157V33.4363H83.487V41.5153H84.3157V37.7598H89.3065V41.5153H90.1352V33.4363H89.3065V37.0615Z" fill="#0A1623"/>
<path d="M25.0129 13.256L21.1922 20.9377L17.3809 13.256C18.5252 13.9758 19.8496 14.3577 21.2015 14.3577C22.5535 14.3577 23.8779 13.9758 25.0222 13.256H25.0129Z" fill="#BBFFDD"/>
<path d="M4.86971 28.6007C4.3445 28.7811 3.84237 29.0228 3.37372 29.3207L14.0505 7.82126C14.1264 8.70062 14.3675 9.55776 14.7613 10.3477L20.5994 22.1263L14.3267 34.7616C14.2308 33.6788 13.8902 32.6319 13.3305 31.7C12.7708 30.7682 12.0066 29.9756 11.0958 29.3823C10.185 28.7889 9.15131 28.4102 8.07274 28.2748C6.99416 28.1394 5.89892 28.2508 4.86971 28.6007Z" fill="#FFDFA4"/>
<path d="M27.6231 10.3571C28.0168 9.56716 28.258 8.71002 28.3338 7.83066L39.0199 29.3301C38.5474 29.0333 38.0423 28.7917 37.5146 28.6101C36.4861 28.2604 35.3916 28.1487 34.3137 28.2836C33.2358 28.4185 32.2025 28.7963 31.2919 29.3887C30.3812 29.981 29.617 30.7724 29.0567 31.7031C28.4965 32.6339 28.1548 33.6797 28.0576 34.7616L21.7881 22.1264L27.6231 10.3571Z" fill="#B7BFFE"/>
<path d="M41.3229 35.404C41.3198 36.5439 40.9986 37.6603 40.3954 38.6276C39.7923 39.5949 38.9311 40.3746 37.9088 40.879C36.4535 41.5967 34.7726 41.707 33.236 41.1855C31.6993 40.664 30.4328 39.5534 29.715 38.098C28.9972 36.6427 28.8869 34.9618 29.4085 33.4252C29.93 31.8885 31.0406 30.622 32.4959 29.9042C33.3401 29.4968 34.2651 29.2846 35.2024 29.2835C35.8726 29.2827 36.5387 29.3874 37.1763 29.5938C37.937 29.8545 38.6387 30.2629 39.2411 30.7955C39.8435 31.3281 40.3348 31.9745 40.6867 32.6975C41.1057 33.5382 41.3235 34.4647 41.3229 35.404Z" fill="#6878FF"/>
<path d="M9.89154 29.9043C11.3439 30.6228 12.4529 31.8868 12.9763 33.4204C13.4997 34.9539 13.3949 36.6322 12.6849 38.0888C11.9676 39.5447 10.702 40.6566 9.16577 41.1803C7.62955 41.704 5.94829 41.5968 4.49106 40.8821C3.76871 40.5286 3.12325 40.0359 2.59169 39.4324C2.06013 38.8288 1.65292 38.1263 1.39342 37.3651C1.13391 36.6039 1.02721 35.7989 1.07942 34.9964C1.13164 34.1938 1.34175 33.4095 1.69771 32.6883C2.05023 31.9652 2.54206 31.3188 3.14498 30.7861C3.74789 30.2535 4.45004 29.8452 5.21113 29.5846C5.8487 29.378 6.51488 29.2732 7.18509 29.2742C8.12306 29.2787 9.04802 29.494 9.89154 29.9043Z" fill="#FFA700"/>
<path d="M27.3127 7.18508C27.3109 8.39371 26.9509 9.57469 26.2782 10.5788C25.6055 11.583 24.6503 12.3652 23.5332 12.8267C22.4162 13.2883 21.1874 13.4084 20.0021 13.1719C18.8168 12.9355 17.7282 12.353 16.8738 11.4981C16.0194 10.6433 15.4375 9.55439 15.2016 8.36899C14.9657 7.18359 15.0865 5.95488 15.5486 4.83806C16.0107 3.72125 16.7934 2.76644 17.7979 2.09426C18.8024 1.42207 19.9835 1.06266 21.1922 1.06144C21.9964 1.06062 22.7929 1.21847 23.5361 1.52597C24.2792 1.83346 24.9544 2.28454 25.523 2.85337C26.0915 3.42221 26.5422 4.09762 26.8494 4.84093C27.1565 5.58423 27.3139 6.38083 27.3127 7.18508Z" fill="#3FED96"/>
<path d="M40.9938 37.3657C41.2119 36.7347 41.3231 36.0717 41.3228 35.4041C41.3282 34.4661 41.1157 33.5396 40.702 32.6977C40.3502 31.9746 39.8589 31.3283 39.2565 30.7956C38.6541 30.263 37.9524 29.8546 37.1917 29.594C36.5541 29.3876 35.888 29.2828 35.2178 29.2836C34.2805 29.2848 33.3554 29.4969 32.5113 29.9043C31.056 30.6217 29.9452 31.8878 29.4234 33.4242C28.9016 34.9605 29.0115 36.6413 29.7288 38.0966C30.4462 39.5519 31.7123 40.6627 33.2487 41.1845C34.785 41.7063 36.4658 41.5965 37.9211 40.8791C38.6406 40.5264 39.2828 40.0342 39.8103 39.431C40.3379 38.8278 40.7401 38.1258 40.9938 37.3657ZM25.0127 13.256C23.8684 13.9758 22.544 14.3577 21.192 14.3577C19.8401 14.3577 18.5157 13.9758 17.3714 13.256L21.192 20.9377L25.0127 13.256ZM27.3126 7.18509C27.3132 5.97566 26.9551 4.79321 26.2836 3.7873C25.6122 2.7814 24.6575 1.99723 23.5403 1.53397C22.4231 1.07072 21.1936 0.949188 20.0073 1.18476C18.821 1.42033 17.7313 2.00242 16.8759 2.8574C16.0205 3.71238 15.4378 4.80185 15.2016 5.988C14.9655 7.17414 15.0864 8.40369 15.5491 9.52112C16.0117 10.6385 16.7954 11.5937 17.801 12.2656C18.8066 12.9376 19.9888 13.2963 21.1983 13.2963C22.8186 13.2939 24.3719 12.6493 25.5179 11.5038C26.664 10.3584 27.3093 8.80541 27.3126 7.18509ZM28.0575 34.7616C28.153 33.6786 28.4933 32.6314 29.0528 31.6991C29.6124 30.7669 30.3764 29.9739 31.2873 29.3802C32.1981 28.7866 33.232 28.4076 34.3108 28.272C35.3896 28.1365 36.4851 28.2478 37.5145 28.5977C38.0422 28.7793 38.5473 29.0209 39.0198 29.3177L28.3337 7.82135C28.2579 8.70071 28.0167 9.55785 27.623 10.3478L21.788 22.1264L28.0575 34.7616ZM12.6723 38.0888C13.3824 36.6323 13.4872 34.954 12.9638 33.4204C12.4404 31.8869 11.3314 30.6228 9.87899 29.9043C9.03471 29.4973 8.1098 29.2852 7.17254 29.2836C6.50233 29.2826 5.83615 29.3873 5.19858 29.594C3.66526 30.1194 2.40247 31.2308 1.68646 32.6849C0.970444 34.139 0.8595 35.8175 1.3779 37.3533C1.63512 38.1161 2.04218 38.8199 2.57517 39.4232C3.10816 40.0265 3.75633 40.5173 4.48162 40.8667C5.93884 41.5813 7.6201 41.6886 9.15633 41.1649C10.6926 40.6412 11.9582 39.5293 12.6754 38.0733L12.6723 38.0888ZM20.5992 22.1264L14.7518 10.3571C14.3581 9.56716 14.1169 8.71002 14.0411 7.83066L3.37359 29.3208C4.40797 28.6643 5.59444 28.2861 6.81796 28.2231C8.04148 28.16 9.26055 28.4141 10.357 28.9608C11.4597 29.5072 12.4038 30.3275 13.0988 31.3432C13.7939 32.3588 14.2166 33.5359 14.3266 34.7616L20.5992 22.1264ZM4.00985 41.835C3.16235 41.4191 2.40529 40.84 1.78207 40.1309C1.15886 39.4218 0.681757 38.5967 0.378125 37.7028C0.0744936 36.8089 -0.0496937 35.8639 0.0126851 34.9219C0.0750638 33.9799 0.322782 33.0595 0.741633 32.2135L14.7518 4.00998C15.341 2.80655 16.2561 1.79258 17.3929 1.08338C18.5298 0.374176 19.8428 -0.00180054 21.1827 -0.00180054C22.5227 -0.00180054 23.8357 0.374176 24.9726 1.08338C26.1094 1.79258 27.0245 2.80655 27.6136 4.00998L41.6207 32.2197C42.1591 33.3139 42.4101 34.5271 42.3501 35.7452C42.2901 36.9632 41.9211 38.1459 41.2779 39.1819C40.6346 40.2179 39.7382 41.0731 38.6731 41.6671C37.608 42.261 36.4093 42.5741 35.1898 42.5768C33.8688 42.5726 32.5737 42.2089 31.4436 41.5247C30.2811 40.8145 29.3454 39.7873 28.7465 38.5637L21.192 23.3151L13.6252 38.5637C13.2108 39.4106 12.6332 40.1674 11.9256 40.7905C11.218 41.4137 10.3943 41.8909 9.50173 42.1948C8.60919 42.4988 7.66541 42.6235 6.72456 42.5617C5.78371 42.5 4.86432 42.253 4.01916 41.835H4.00985Z" fill="white"/>
</g>
<defs>
<clipPath id="clip0_315_119">
<rect width="165" height="42.5768" fill="white"/>
</clipPath>
</defs>
</svg>