<svg height='100px' width='100px'  fill="#FFFFFF" xmlns="http://www.w3.org/2000/svg" xmlns:xlink="http://www.w3.org/1999/xlink" version="1.1" x="0px" y="0px" viewBox="0 0 64 64" enable-background="new 0 0 64 64" xml:space="preserve"><g><g><path d="M56,10H8c-1.104,0-2,0.896-2,2v40c0,1.104,0.896,2,2,2h48c1.104,0,2-0.896,2-2V12C58,10.896,57.104,10,56,10z M54,44H40    v-4h14V44z M10,50V14h44v22H38c-1.104,0-2,0.896-2,2v8c0,1.104,0.896,2,2,2h16v2H10z"></path><path d="M36,24h6v3.172l-0.586-0.586c-0.781-0.781-2.047-0.781-2.828,0c-0.781,0.781-0.781,2.047,0,2.828l4,4    C42.977,33.805,43.488,34,44,34s1.023-0.195,1.414-0.586l4-4c0.781-0.781,0.781-2.047,0-2.828c-0.781-0.781-2.047-0.781-2.828,0    L46,27.172V22c0-1.104-0.896-2-2-2h-8v-2c0-1.104-0.896-2-2-2H14c-1.104,0-2,0.896-2,2v8c0,1.104,0.896,2,2,2h20    c1.104,0,2-0.896,2-2V24z M32,24H16v-4h16V24z"></path></g></g></svg>